<svg xmlns="http://www.w3.org/2000/svg" xmlns:xlink="http://www.w3.org/1999/xlink" width="500" zoomAndPan="magnify" viewBox="0 0 375 374.999991" height="500" preserveAspectRatio="xMidYMid meet" version="1.0"><defs><clipPath id="831c08eb3a"><path d="M 168.46875 200 L 173 200 L 173 203 L 168.46875 203 Z M 168.46875 200 " clip-rule="nonzero"/></clipPath><clipPath id="b365ce9e73"><path d="M 168.46875 195 L 173 195 L 173 197 L 168.46875 197 Z M 168.46875 195 " clip-rule="nonzero"/></clipPath><clipPath id="44b05c8851"><path d="M 168.46875 189 L 173 189 L 173 191 L 168.46875 191 Z M 168.46875 189 " clip-rule="nonzero"/></clipPath><clipPath id="32d4125223"><path d="M 168.46875 183 L 173 183 L 173 185 L 168.46875 185 Z M 168.46875 183 " clip-rule="nonzero"/></clipPath><clipPath id="a9b1cf8d8c"><path d="M 168.46875 177 L 173 177 L 173 179 L 168.46875 179 Z M 168.46875 177 " clip-rule="nonzero"/></clipPath><clipPath id="e69541fd69"><path d="M 168.46875 171 L 173 171 L 173 173 L 168.46875 173 Z M 168.46875 171 " clip-rule="nonzero"/></clipPath><clipPath id="e8ba971e92"><path d="M 168.46875 169.367188 L 206.71875 169.367188 L 206.71875 205.367188 L 168.46875 205.367188 Z M 168.46875 169.367188 " clip-rule="nonzero"/></clipPath></defs><path fill="#ff6d55" d="M 189.691406 201.96875 L 185.28125 201.96875 C 185.125 201.96875 184.996094 201.917969 184.886719 201.808594 C 184.777344 201.703125 184.722656 201.570312 184.722656 201.417969 L 184.722656 189.203125 C 184.722656 189.050781 184.777344 188.921875 184.886719 188.8125 C 184.996094 188.707031 185.125 188.652344 185.28125 188.652344 L 189.691406 188.652344 C 189.847656 188.652344 189.976562 188.707031 190.085938 188.8125 C 190.195312 188.921875 190.25 189.050781 190.25 189.203125 L 190.25 201.417969 C 190.25 201.570312 190.195312 201.703125 190.085938 201.808594 C 189.976562 201.917969 189.847656 201.96875 189.691406 201.96875 Z M 189.691406 201.96875 " fill-opacity="1" fill-rule="nonzero"/><path fill="#4c91d4" d="M 205.28125 201.96875 L 200.871094 201.96875 C 200.71875 201.96875 200.585938 201.917969 200.476562 201.808594 C 200.367188 201.703125 200.316406 201.570312 200.316406 201.417969 L 200.316406 181.820312 C 200.316406 181.667969 200.367188 181.539062 200.476562 181.433594 C 200.585938 181.324219 200.71875 181.269531 200.871094 181.269531 L 205.28125 181.269531 C 205.433594 181.269531 205.566406 181.324219 205.675781 181.433594 C 205.785156 181.539062 205.839844 181.667969 205.839844 181.820312 L 205.839844 201.417969 C 205.839844 201.570312 205.785156 201.703125 205.675781 201.808594 C 205.566406 201.917969 205.433594 201.96875 205.28125 201.96875 Z M 205.28125 201.96875 " fill-opacity="1" fill-rule="nonzero"/><path fill="#3c6a98" d="M 197.484375 201.96875 L 193.078125 201.96875 C 192.925781 201.96875 192.792969 201.914062 192.6875 201.804688 C 192.582031 201.699219 192.527344 201.570312 192.527344 201.417969 L 192.527344 193.378906 C 192.527344 193.226562 192.582031 193.097656 192.691406 192.992188 C 192.800781 192.882812 192.929688 192.828125 193.085938 192.828125 L 197.484375 192.828125 C 197.636719 192.828125 197.769531 192.882812 197.878906 192.992188 C 197.988281 193.097656 198.042969 193.226562 198.042969 193.378906 L 198.042969 201.417969 C 198.042969 201.570312 197.988281 201.703125 197.878906 201.808594 C 197.769531 201.917969 197.636719 201.96875 197.484375 201.96875 Z M 197.484375 201.96875 " fill-opacity="1" fill-rule="nonzero"/><path fill="#fdd04c" d="M 181.894531 201.96875 L 177.484375 201.96875 C 177.328125 201.96875 177.199219 201.917969 177.089844 201.808594 C 176.980469 201.703125 176.925781 201.570312 176.925781 201.417969 L 176.925781 198.238281 C 176.925781 198.085938 176.980469 197.957031 177.089844 197.847656 C 177.199219 197.742188 177.328125 197.6875 177.484375 197.6875 L 181.894531 197.6875 C 182.050781 197.6875 182.179688 197.742188 182.289062 197.847656 C 182.398438 197.957031 182.453125 198.085938 182.453125 198.238281 L 182.453125 201.417969 C 182.453125 201.570312 182.398438 201.703125 182.289062 201.808594 C 182.179688 201.917969 182.050781 201.96875 181.894531 201.96875 Z M 181.894531 201.96875 " fill-opacity="1" fill-rule="nonzero"/><path fill="#4c91d4" d="M 200.789062 178.539062 C 200.632812 178.539062 200.503906 178.484375 200.394531 178.378906 C 200.285156 178.269531 200.230469 178.140625 200.230469 177.988281 L 200.230469 172.578125 L 194.757812 172.578125 C 194.605469 172.578125 194.472656 172.527344 194.363281 172.417969 C 194.257812 172.308594 194.203125 172.179688 194.203125 172.027344 C 194.203125 171.875 194.257812 171.746094 194.363281 171.636719 C 194.472656 171.53125 194.605469 171.476562 194.757812 171.476562 L 200.789062 171.476562 C 200.941406 171.476562 201.074219 171.53125 201.183594 171.636719 C 201.292969 171.746094 201.347656 171.875 201.347656 172.027344 L 201.347656 177.988281 C 201.347656 178.140625 201.292969 178.269531 201.183594 178.378906 C 201.074219 178.484375 200.941406 178.539062 200.789062 178.539062 Z M 200.789062 178.539062 " fill-opacity="1" fill-rule="nonzero"/><path fill="#4c91d4" d="M 175.019531 189.078125 C 174.773438 189.078125 174.605469 188.96875 174.507812 188.75 C 174.40625 188.527344 174.441406 188.328125 174.609375 188.152344 L 182.394531 179.851562 C 182.503906 179.71875 182.640625 179.660156 182.8125 179.671875 C 182.976562 179.675781 183.117188 179.738281 183.226562 179.863281 L 187.503906 184.714844 L 200.007812 171.921875 C 200.113281 171.804688 200.242188 171.738281 200.402344 171.734375 C 200.5625 171.726562 200.703125 171.777344 200.816406 171.890625 C 200.929688 172 200.988281 172.132812 200.984375 172.292969 C 200.984375 172.449219 200.921875 172.582031 200.804688 172.691406 L 187.890625 185.925781 C 187.777344 186.035156 187.636719 186.089844 187.476562 186.09375 C 187.3125 186.089844 187.175781 186.027344 187.066406 185.902344 L 182.796875 181.050781 L 175.429688 188.902344 C 175.320312 189.019531 175.183594 189.078125 175.019531 189.078125 Z M 175.019531 189.078125 " fill-opacity="1" fill-rule="nonzero"/><g clip-path="url(#831c08eb3a)"><path fill="#3c6a98" d="M 172.121094 202.097656 L 169.078125 202.097656 C 168.925781 202.097656 168.792969 202.042969 168.683594 201.9375 C 168.578125 201.828125 168.523438 201.699219 168.523438 201.546875 C 168.523438 201.394531 168.578125 201.265625 168.683594 201.15625 C 168.792969 201.050781 168.925781 200.996094 169.078125 200.996094 L 172.121094 200.996094 C 172.273438 200.996094 172.40625 201.050781 172.515625 201.15625 C 172.625 201.265625 172.679688 201.394531 172.679688 201.546875 C 172.679688 201.699219 172.625 201.828125 172.515625 201.9375 C 172.40625 202.042969 172.273438 202.097656 172.121094 202.097656 Z M 172.121094 202.097656 " fill-opacity="1" fill-rule="nonzero"/></g><g clip-path="url(#b365ce9e73)"><path fill="#3c6a98" d="M 172.121094 196.234375 L 169.078125 196.234375 C 168.925781 196.234375 168.792969 196.179688 168.683594 196.074219 C 168.578125 195.964844 168.523438 195.835938 168.523438 195.683594 C 168.523438 195.53125 168.578125 195.402344 168.683594 195.292969 C 168.792969 195.1875 168.925781 195.132812 169.078125 195.132812 L 172.121094 195.132812 C 172.273438 195.132812 172.40625 195.1875 172.515625 195.292969 C 172.625 195.402344 172.679688 195.53125 172.679688 195.683594 C 172.679688 195.835938 172.625 195.964844 172.515625 196.074219 C 172.40625 196.179688 172.273438 196.234375 172.121094 196.234375 Z M 172.121094 196.234375 " fill-opacity="1" fill-rule="nonzero"/></g><g clip-path="url(#44b05c8851)"><path fill="#3c6a98" d="M 172.121094 190.34375 L 169.078125 190.34375 C 168.925781 190.34375 168.792969 190.292969 168.683594 190.183594 C 168.578125 190.078125 168.523438 189.945312 168.523438 189.792969 C 168.523438 189.640625 168.578125 189.511719 168.683594 189.402344 C 168.792969 189.296875 168.925781 189.242188 169.078125 189.242188 L 172.121094 189.242188 C 172.273438 189.242188 172.40625 189.296875 172.515625 189.402344 C 172.625 189.511719 172.679688 189.640625 172.679688 189.792969 C 172.679688 189.945312 172.625 190.078125 172.515625 190.183594 C 172.40625 190.292969 172.273438 190.34375 172.121094 190.34375 Z M 172.121094 190.34375 " fill-opacity="1" fill-rule="nonzero"/></g><g clip-path="url(#32d4125223)"><path fill="#3c6a98" d="M 172.121094 184.464844 L 169.078125 184.464844 C 168.925781 184.464844 168.792969 184.410156 168.683594 184.304688 C 168.578125 184.195312 168.523438 184.066406 168.523438 183.914062 C 168.523438 183.761719 168.578125 183.632812 168.683594 183.523438 C 168.792969 183.414062 168.925781 183.363281 169.078125 183.363281 L 172.121094 183.363281 C 172.273438 183.363281 172.40625 183.414062 172.515625 183.523438 C 172.625 183.632812 172.679688 183.761719 172.679688 183.914062 C 172.679688 184.066406 172.625 184.195312 172.515625 184.304688 C 172.40625 184.410156 172.273438 184.464844 172.121094 184.464844 Z M 172.121094 184.464844 " fill-opacity="1" fill-rule="nonzero"/></g><g clip-path="url(#a9b1cf8d8c)"><path fill="#3c6a98" d="M 172.121094 178.589844 L 169.078125 178.589844 C 168.925781 178.589844 168.792969 178.535156 168.683594 178.425781 C 168.578125 178.320312 168.523438 178.1875 168.523438 178.035156 C 168.523438 177.882812 168.578125 177.753906 168.683594 177.648438 C 168.792969 177.539062 168.925781 177.484375 169.078125 177.484375 L 172.121094 177.484375 C 172.273438 177.484375 172.40625 177.539062 172.515625 177.648438 C 172.625 177.753906 172.679688 177.882812 172.679688 178.035156 C 172.679688 178.1875 172.625 178.320312 172.515625 178.425781 C 172.40625 178.535156 172.273438 178.589844 172.121094 178.589844 Z M 172.121094 178.589844 " fill-opacity="1" fill-rule="nonzero"/></g><g clip-path="url(#e69541fd69)"><path fill="#3c6a98" d="M 172.121094 172.710938 L 169.078125 172.710938 C 168.925781 172.710938 168.792969 172.65625 168.683594 172.550781 C 168.578125 172.441406 168.523438 172.3125 168.523438 172.160156 C 168.523438 172.007812 168.578125 171.878906 168.683594 171.769531 C 168.792969 171.664062 168.925781 171.609375 169.078125 171.609375 L 172.121094 171.609375 C 172.273438 171.609375 172.40625 171.664062 172.515625 171.769531 C 172.625 171.878906 172.679688 172.007812 172.679688 172.160156 C 172.679688 172.3125 172.625 172.441406 172.515625 172.550781 C 172.40625 172.65625 172.273438 172.710938 172.121094 172.710938 Z M 172.121094 172.710938 " fill-opacity="1" fill-rule="nonzero"/></g><g clip-path="url(#e8ba971e92)"><path fill="#3c6a98" d="M 206.105469 205.359375 L 169.078125 205.359375 C 168.925781 205.359375 168.792969 205.304688 168.683594 205.195312 C 168.578125 205.089844 168.523438 204.960938 168.523438 204.808594 L 168.523438 169.929688 C 168.523438 169.777344 168.578125 169.644531 168.683594 169.539062 C 168.792969 169.429688 168.925781 169.375 169.078125 169.375 C 169.234375 169.375 169.367188 169.429688 169.476562 169.539062 C 169.582031 169.644531 169.636719 169.777344 169.636719 169.929688 L 169.636719 204.253906 L 206.105469 204.253906 C 206.261719 204.253906 206.390625 204.308594 206.5 204.417969 C 206.609375 204.523438 206.664062 204.65625 206.664062 204.808594 C 206.664062 204.960938 206.609375 205.089844 206.5 205.195312 C 206.390625 205.304688 206.261719 205.359375 206.105469 205.359375 Z M 206.105469 205.359375 " fill-opacity="1" fill-rule="nonzero"/></g></svg>