<svg xmlns="http://www.w3.org/2000/svg" xmlns:xlink="http://www.w3.org/1999/xlink" width="500" zoomAndPan="magnify" viewBox="0 0 375 374.999991" height="500" preserveAspectRatio="xMidYMid meet" version="1.0"><defs><clipPath id="017e83bcc2"><path d="M 159.316406 192 L 204 192 L 204 219.417969 L 159.316406 219.417969 Z M 159.316406 192 " clip-rule="nonzero"/></clipPath><clipPath id="856538abc1"><path d="M 171.589844 181.167969 L 215.527344 181.167969 L 215.527344 208.222656 L 171.589844 208.222656 Z M 171.589844 181.167969 " clip-rule="nonzero"/></clipPath><clipPath id="6bd35be4a1"><path d="M 172 181.167969 L 215 181.167969 L 215 208 L 172 208 Z M 172 181.167969 " clip-rule="nonzero"/></clipPath></defs><g clip-path="url(#017e83bcc2)"><path fill="#1c2a52" d="M 163.117188 219.417969 C 161.042969 219.417969 159.351562 217.71875 159.351562 215.632812 L 159.351562 196.1875 C 159.351562 194.097656 161.042969 192.398438 163.117188 192.398438 L 199.503906 192.398438 C 201.582031 192.398438 203.269531 194.097656 203.269531 196.1875 L 203.269531 215.632812 C 203.269531 217.71875 201.582031 219.417969 199.503906 219.417969 L 163.117188 219.417969 " fill-opacity="1" fill-rule="nonzero"/></g><path fill="#3e5cb3" d="M 199.503906 193.195312 C 201.148438 193.195312 202.476562 194.535156 202.476562 196.1875 L 202.476562 215.632812 C 202.476562 217.285156 201.148438 218.625 199.503906 218.625 L 163.117188 218.625 C 161.476562 218.625 160.144531 217.285156 160.144531 215.632812 L 160.144531 196.1875 C 160.144531 194.535156 161.476562 193.195312 163.117188 193.195312 L 199.503906 193.195312 " fill-opacity="1" fill-rule="nonzero"/><path fill="#f79211" d="M 160.144531 196.1875 L 160.144531 202.457031 L 202.476562 202.457031 L 202.476562 196.1875 C 202.476562 196.132812 202.472656 196.082031 202.46875 196.027344 L 160.152344 196.027344 C 160.152344 196.082031 160.144531 196.132812 160.144531 196.1875 " fill-opacity="1" fill-rule="nonzero"/><path fill="#2f97da" d="M 160.144531 216.332031 L 202.476562 216.332031 L 202.476562 215.933594 L 160.144531 215.933594 Z M 160.144531 216.332031 " fill-opacity="1" fill-rule="nonzero"/><path fill="#ed1c26" d="M 194.226562 214.789062 C 195.714844 214.789062 196.921875 213.574219 196.921875 212.074219 C 196.921875 210.578125 195.714844 209.363281 194.226562 209.363281 C 192.734375 209.363281 191.527344 210.578125 191.527344 212.074219 C 191.527344 213.574219 192.734375 214.789062 194.226562 214.789062 " fill-opacity="1" fill-rule="nonzero"/><path fill="#f89f11" d="M 200.128906 212.074219 C 200.128906 213.574219 198.921875 214.789062 197.433594 214.789062 C 196.832031 214.789062 196.277344 214.589844 195.832031 214.253906 C 195.167969 213.761719 194.738281 212.96875 194.738281 212.074219 C 194.738281 211.179688 195.167969 210.386719 195.832031 209.894531 C 196.277344 209.558594 196.832031 209.363281 197.433594 209.363281 C 198.921875 209.363281 200.128906 210.578125 200.128906 212.074219 " fill-opacity="1" fill-rule="nonzero"/><path fill="#f46c18" d="M 196.921875 212.074219 C 196.921875 212.96875 196.492188 213.761719 195.832031 214.253906 C 195.167969 213.761719 194.738281 212.96875 194.738281 212.074219 C 194.738281 211.179688 195.167969 210.386719 195.832031 209.894531 C 196.492188 210.390625 196.921875 211.179688 196.921875 212.074219 " fill-opacity="1" fill-rule="nonzero"/><path fill="#ffffff" d="M 199.421875 212.683594 L 199.421875 211.46875 L 192.238281 211.46875 L 192.238281 212.683594 L 199.421875 212.683594 " fill-opacity="1" fill-rule="nonzero"/><path fill="#324a90" d="M 163.964844 214.550781 L 173.324219 214.550781 L 173.324219 212.824219 L 163.964844 212.824219 Z M 163.964844 214.550781 " fill-opacity="1" fill-rule="nonzero"/><path fill="#324a90" d="M 163.964844 211.667969 L 184.394531 211.667969 L 184.394531 209.292969 L 163.964844 209.292969 Z M 163.964844 211.667969 " fill-opacity="1" fill-rule="nonzero"/><path fill="#324a90" d="M 200.472656 207.746094 C 200.472656 208.183594 200.117188 208.542969 199.679688 208.542969 L 191.957031 208.542969 C 191.515625 208.542969 191.164062 208.183594 191.164062 207.746094 L 191.164062 204.097656 C 191.164062 203.660156 191.515625 203.300781 191.957031 203.300781 L 199.679688 203.300781 C 200.117188 203.300781 200.472656 203.660156 200.472656 204.097656 L 200.472656 207.746094 " fill-opacity="1" fill-rule="nonzero"/><path fill="#1e263e" d="M 199.507812 218.625 C 199.511719 218.625 199.511719 218.621094 199.511719 218.621094 C 199.511719 218.621094 199.511719 218.625 199.507812 218.625 M 199.515625 218.621094 L 199.515625 218.621094 M 199.519531 218.621094 L 199.519531 218.621094 M 199.523438 218.621094 L 199.523438 218.621094 M 160.144531 196.1875 C 160.144531 196.1875 160.144531 196.183594 160.144531 196.183594 C 160.144531 196.183594 160.144531 196.1875 160.144531 196.1875 M 160.144531 196.179688 L 160.144531 196.179688 M 160.144531 196.175781 L 160.144531 196.175781 M 160.144531 196.171875 L 160.144531 196.171875 M 160.144531 196.167969 C 160.144531 196.167969 160.144531 196.164062 160.144531 196.164062 C 160.144531 196.167969 160.144531 196.167969 160.144531 196.167969 " fill-opacity="1" fill-rule="nonzero"/><path fill="#42558a" d="M 199.503906 218.625 L 163.117188 218.625 C 161.714844 218.625 160.539062 217.644531 160.226562 216.332031 L 197.042969 216.332031 C 198.546875 216.800781 200.097656 217.242188 201.695312 217.652344 C 201.15625 218.242188 200.386719 218.617188 199.53125 218.621094 C 199.527344 218.621094 199.527344 218.621094 199.523438 218.621094 C 199.523438 218.621094 199.523438 218.621094 199.519531 218.621094 C 199.519531 218.621094 199.515625 218.621094 199.515625 218.621094 C 199.511719 218.621094 199.511719 218.621094 199.511719 218.621094 C 199.511719 218.621094 199.511719 218.625 199.507812 218.625 C 199.507812 218.625 199.507812 218.625 199.503906 218.625 M 195.796875 215.933594 L 160.160156 215.933594 C 160.152344 215.835938 160.144531 215.734375 160.144531 215.632812 L 160.144531 202.457031 L 170.039062 202.457031 C 170.546875 202.847656 171.070312 203.238281 171.609375 203.628906 L 171.609375 204.402344 C 171.609375 206.488281 173.296875 208.1875 175.375 208.1875 L 178.570312 208.1875 C 179.199219 208.558594 179.84375 208.925781 180.503906 209.292969 L 163.964844 209.292969 L 163.964844 211.667969 L 184.394531 211.667969 L 184.394531 211.3125 C 187.847656 213 191.644531 214.570312 195.796875 215.933594 M 163.964844 212.824219 L 163.964844 214.550781 L 173.324219 214.550781 L 173.324219 212.824219 L 163.964844 212.824219 M 160.144531 196.1875 C 160.144531 196.1875 160.144531 196.183594 160.144531 196.183594 C 160.144531 196.183594 160.144531 196.183594 160.144531 196.179688 C 160.144531 196.179688 160.144531 196.175781 160.144531 196.175781 C 160.144531 196.171875 160.144531 196.171875 160.144531 196.171875 C 160.144531 196.167969 160.144531 196.167969 160.144531 196.167969 C 160.144531 196.167969 160.144531 196.167969 160.144531 196.164062 C 160.152344 195.417969 160.429688 194.738281 160.886719 194.21875 C 161.417969 194.785156 162.007812 195.390625 162.648438 196.027344 L 160.152344 196.027344 C 160.152344 196.082031 160.144531 196.132812 160.144531 196.1875 " fill-opacity="1" fill-rule="nonzero"/><path fill="#f57d14" d="M 170.039062 202.457031 L 160.144531 202.457031 L 160.144531 196.1875 C 160.144531 196.132812 160.152344 196.082031 160.152344 196.027344 L 162.648438 196.027344 C 164.597656 197.960938 167.054688 200.171875 170.039062 202.457031 " fill-opacity="1" fill-rule="nonzero"/><path fill="#3583a2" d="M 197.042969 216.332031 L 160.226562 216.332031 C 160.195312 216.203125 160.171875 216.070312 160.160156 215.933594 L 195.796875 215.933594 C 196.210938 216.066406 196.625 216.199219 197.042969 216.332031 " fill-opacity="1" fill-rule="nonzero"/><path fill="#35446f" d="M 163.964844 214.550781 L 173.324219 214.550781 L 173.324219 212.824219 L 163.964844 212.824219 Z M 163.964844 214.550781 " fill-opacity="1" fill-rule="nonzero"/><path fill="#35446f" d="M 184.394531 211.667969 L 163.964844 211.667969 L 163.964844 209.292969 L 180.503906 209.292969 C 181.75 209.980469 183.046875 210.65625 184.394531 211.3125 L 184.394531 211.667969 " fill-opacity="1" fill-rule="nonzero"/><g clip-path="url(#856538abc1)"><path fill="#655402" d="M 175.375 208.1875 C 173.296875 208.1875 171.609375 206.488281 171.609375 204.402344 L 171.609375 184.957031 C 171.609375 182.867188 173.296875 181.171875 175.375 181.171875 L 211.757812 181.171875 C 213.835938 181.171875 215.527344 182.867188 215.527344 184.957031 L 215.527344 204.402344 C 215.527344 206.488281 213.835938 208.1875 211.757812 208.1875 L 175.375 208.1875 " fill-opacity="1" fill-rule="nonzero"/></g><g clip-path="url(#6bd35be4a1)"><path fill="#f9d107" d="M 211.757812 181.964844 C 213.402344 181.964844 214.734375 183.304688 214.734375 184.957031 L 214.734375 204.402344 C 214.734375 206.054688 213.402344 207.394531 211.757812 207.394531 L 175.375 207.394531 C 173.730469 207.394531 172.402344 206.054688 172.402344 204.402344 L 172.402344 184.957031 C 172.402344 183.304688 173.730469 181.964844 175.375 181.964844 L 211.757812 181.964844 " fill-opacity="1" fill-rule="nonzero"/></g><path fill="#944d1d" d="M 172.402344 184.957031 L 172.402344 191.226562 L 214.734375 191.226562 L 214.734375 184.957031 C 214.734375 184.902344 214.726562 184.851562 214.726562 184.796875 L 172.410156 184.796875 C 172.40625 184.851562 172.402344 184.902344 172.402344 184.957031 " fill-opacity="1" fill-rule="nonzero"/><path fill="#f89f11" d="M 172.402344 205.101562 L 214.734375 205.101562 L 214.734375 204.703125 L 172.402344 204.703125 Z M 172.402344 205.101562 " fill-opacity="1" fill-rule="nonzero"/><path fill="#ed1c26" d="M 206.480469 203.558594 C 207.96875 203.558594 209.175781 202.34375 209.175781 200.84375 C 209.175781 199.347656 207.96875 198.132812 206.480469 198.132812 C 204.992188 198.132812 203.785156 199.347656 203.785156 200.84375 C 203.785156 202.34375 204.992188 203.558594 206.480469 203.558594 " fill-opacity="1" fill-rule="nonzero"/><path fill="#f89f11" d="M 212.382812 200.84375 C 212.382812 202.34375 211.175781 203.554688 209.6875 203.554688 C 209.089844 203.554688 208.535156 203.359375 208.085938 203.023438 C 207.421875 202.53125 206.992188 201.738281 206.992188 200.84375 C 206.992188 199.949219 207.421875 199.160156 208.085938 198.664062 C 208.535156 198.328125 209.089844 198.132812 209.6875 198.132812 C 211.175781 198.132812 212.382812 199.347656 212.382812 200.84375 " fill-opacity="1" fill-rule="nonzero"/><path fill="#f46c18" d="M 209.175781 200.84375 C 209.175781 201.738281 208.746094 202.53125 208.085938 203.023438 C 207.421875 202.53125 206.992188 201.738281 206.992188 200.84375 C 206.992188 199.949219 207.421875 199.160156 208.085938 198.664062 C 208.746094 199.160156 209.175781 199.949219 209.175781 200.84375 " fill-opacity="1" fill-rule="nonzero"/><path fill="#ffffff" d="M 211.675781 201.453125 L 211.675781 200.238281 L 204.492188 200.238281 L 204.492188 201.453125 L 211.675781 201.453125 " fill-opacity="1" fill-rule="nonzero"/><path fill="#f89f11" d="M 176.21875 203.320312 L 185.578125 203.320312 L 185.578125 201.59375 L 176.21875 201.59375 Z M 176.21875 203.320312 " fill-opacity="1" fill-rule="nonzero"/><path fill="#f89f11" d="M 176.21875 200.4375 L 196.648438 200.4375 L 196.648438 198.0625 L 176.21875 198.0625 Z M 176.21875 200.4375 " fill-opacity="1" fill-rule="nonzero"/><path fill="#f89f11" d="M 212.726562 196.515625 C 212.726562 196.957031 212.371094 197.3125 211.933594 197.3125 L 204.210938 197.3125 C 203.773438 197.3125 203.417969 196.957031 203.417969 196.515625 L 203.417969 192.867188 C 203.417969 192.429688 203.773438 192.070312 204.210938 192.070312 L 211.933594 192.070312 C 212.371094 192.070312 212.726562 192.429688 212.726562 192.867188 L 212.726562 196.515625 " fill-opacity="1" fill-rule="nonzero"/><path fill="#654704" d="M 211.765625 207.394531 L 211.765625 207.394531 M 211.769531 207.394531 L 211.769531 207.394531 M 211.773438 207.394531 C 211.773438 207.394531 211.773438 207.394531 211.777344 207.394531 C 211.773438 207.394531 211.773438 207.394531 211.773438 207.394531 M 211.78125 207.394531 L 211.78125 207.394531 M 211.785156 207.394531 C 211.785156 207.390625 211.785156 207.390625 211.785156 207.390625 C 211.785156 207.390625 211.785156 207.390625 211.785156 207.394531 M 172.402344 184.957031 C 172.402344 184.957031 172.402344 184.953125 172.402344 184.953125 C 172.402344 184.953125 172.402344 184.957031 172.402344 184.957031 M 172.402344 184.949219 L 172.402344 184.949219 M 172.402344 184.945312 L 172.402344 184.945312 M 172.402344 184.941406 C 172.402344 184.941406 172.402344 184.941406 172.402344 184.9375 C 172.402344 184.941406 172.402344 184.941406 172.402344 184.941406 M 172.402344 184.9375 C 172.402344 184.933594 172.402344 184.933594 172.402344 184.933594 C 172.402344 184.933594 172.402344 184.933594 172.402344 184.9375 " fill-opacity="1" fill-rule="nonzero"/><path fill="#f7b20c" d="M 211.757812 207.394531 L 175.375 207.394531 C 173.972656 207.394531 172.796875 206.414062 172.484375 205.101562 L 209.296875 205.101562 C 210.800781 205.570312 212.351562 206.011719 213.949219 206.421875 C 213.410156 207.011719 212.644531 207.382812 211.789062 207.390625 C 211.789062 207.390625 211.785156 207.390625 211.785156 207.390625 C 211.785156 207.390625 211.785156 207.390625 211.785156 207.394531 C 211.785156 207.394531 211.78125 207.394531 211.78125 207.394531 C 211.777344 207.394531 211.777344 207.394531 211.777344 207.394531 C 211.773438 207.394531 211.773438 207.394531 211.773438 207.394531 C 211.773438 207.394531 211.773438 207.394531 211.769531 207.394531 C 211.769531 207.394531 211.765625 207.394531 211.765625 207.394531 C 211.761719 207.394531 211.761719 207.394531 211.757812 207.394531 M 208.054688 204.703125 L 172.414062 204.703125 C 172.40625 204.605469 172.402344 204.503906 172.402344 204.402344 L 172.402344 191.226562 L 182.292969 191.226562 C 185.257812 193.496094 188.738281 195.839844 192.757812 198.0625 L 176.21875 198.0625 L 176.21875 200.4375 L 196.648438 200.4375 L 196.648438 200.082031 C 200.101562 201.769531 203.902344 203.34375 208.054688 204.703125 M 176.21875 201.59375 L 176.21875 203.320312 L 185.578125 203.320312 L 185.578125 201.59375 L 176.21875 201.59375 M 172.402344 184.957031 C 172.402344 184.957031 172.402344 184.953125 172.402344 184.953125 C 172.402344 184.953125 172.402344 184.953125 172.402344 184.949219 C 172.402344 184.945312 172.402344 184.945312 172.402344 184.945312 C 172.402344 184.941406 172.402344 184.941406 172.402344 184.941406 C 172.402344 184.941406 172.402344 184.941406 172.402344 184.9375 C 172.402344 184.933594 172.402344 184.933594 172.402344 184.933594 C 172.40625 184.1875 172.6875 183.507812 173.140625 182.988281 C 173.675781 183.554688 174.261719 184.160156 174.902344 184.796875 L 172.410156 184.796875 C 172.40625 184.851562 172.402344 184.902344 172.402344 184.957031 " fill-opacity="1" fill-rule="nonzero"/><path fill="#95451e" d="M 182.292969 191.226562 L 172.402344 191.226562 L 172.402344 184.957031 C 172.402344 184.902344 172.40625 184.851562 172.410156 184.796875 L 174.902344 184.796875 C 176.855469 186.730469 179.3125 188.941406 182.292969 191.226562 " fill-opacity="1" fill-rule="nonzero"/><path fill="#f68814" d="M 209.296875 205.101562 L 172.484375 205.101562 C 172.453125 204.972656 172.429688 204.839844 172.414062 204.703125 L 208.054688 204.703125 C 208.464844 204.839844 208.878906 204.96875 209.296875 205.101562 " fill-opacity="1" fill-rule="nonzero"/><path fill="#f68814" d="M 176.21875 203.320312 L 185.578125 203.320312 L 185.578125 201.59375 L 176.21875 201.59375 Z M 176.21875 203.320312 " fill-opacity="1" fill-rule="nonzero"/><path fill="#f68814" d="M 196.648438 200.4375 L 176.21875 200.4375 L 176.21875 198.0625 L 192.757812 198.0625 C 194.003906 198.75 195.300781 199.425781 196.648438 200.082031 L 196.648438 200.4375 " fill-opacity="1" fill-rule="nonzero"/></svg>