<svg xmlns="http://www.w3.org/2000/svg" xmlns:xlink="http://www.w3.org/1999/xlink" width="500" zoomAndPan="magnify" viewBox="0 0 375 374.999991" height="500" preserveAspectRatio="xMidYMid meet" version="1.0"><defs><clipPath id="daa9a7c780"><path d="M 166 165 L 210 165 L 210 213.667969 L 166 213.667969 Z M 166 165 " clip-rule="nonzero"/></clipPath><clipPath id="790d08e31b"><path d="M 162.507812 161.167969 L 212.757812 161.167969 L 212.757812 189 L 162.507812 189 Z M 162.507812 161.167969 " clip-rule="nonzero"/></clipPath><clipPath id="d2f25608ce"><path d="M 172 194 L 186 194 L 186 213.667969 L 172 213.667969 Z M 172 194 " clip-rule="nonzero"/></clipPath><clipPath id="f60ea4ae69"><path d="M 188 205 L 212 205 L 212 213.667969 L 188 213.667969 Z M 188 205 " clip-rule="nonzero"/></clipPath></defs><g clip-path="url(#daa9a7c780)"><path fill="#f7e3b5" d="M 208.34375 185.285156 C 208.339844 185.277344 208.335938 185.273438 208.332031 185.269531 L 192.054688 168.34375 C 189.816406 166.160156 189.515625 165.359375 187.695312 165.359375 C 186.28125 165.359375 185.300781 166.28125 182.894531 168.601562 L 167.15625 185.265625 C 166.675781 185.742188 166.375 186.410156 166.375 187.160156 L 166.375 211.050781 C 166.375 212.488281 167.484375 213.65625 168.851562 213.65625 L 206.625 213.65625 C 207.992188 213.65625 209.101562 212.488281 209.101562 211.050781 L 209.101562 187.160156 C 209.101562 186.421875 208.8125 185.757812 208.34375 185.285156 " fill-opacity="1" fill-rule="nonzero"/></g><path fill="#ea8342" d="M 188.863281 206.949219 C 188.269531 206.949219 187.785156 206.339844 187.785156 205.582031 L 187.785156 195.386719 C 187.785156 194.632812 188.269531 194.019531 188.863281 194.019531 L 204.164062 194.019531 C 204.761719 194.019531 205.242188 194.632812 205.242188 195.386719 L 205.242188 205.582031 C 205.242188 206.339844 204.761719 206.949219 204.164062 206.949219 L 188.863281 206.949219 " fill-opacity="1" fill-rule="nonzero"/><g clip-path="url(#790d08e31b)"><path fill="#e0464c" d="M 211.84375 184.859375 L 188.828125 162.039062 C 188.257812 161.472656 187.652344 161.160156 187.15625 161.648438 C 187.15625 161.648438 185.765625 162.707031 185.46875 163.003906 L 163.386719 184.898438 C 162.839844 185.441406 162.539062 186.027344 163.035156 186.515625 L 164.410156 187.882812 C 164.90625 188.371094 165.496094 188.078125 166.042969 187.535156 L 187.632812 166.125 L 209.183594 187.496094 C 209.753906 188.058594 210.363281 188.371094 210.855469 187.882812 L 212.238281 186.515625 C 212.726562 186.027344 212.414062 185.425781 211.84375 184.859375 " fill-opacity="1" fill-rule="nonzero"/></g><g clip-path="url(#d2f25608ce)"><path fill="#ea8342" d="M 185.039062 213.621094 L 185.039062 195.332031 C 185.039062 194.605469 184.445312 194.019531 183.714844 194.019531 L 173.855469 194.019531 C 173.128906 194.019531 172.53125 194.605469 172.53125 195.332031 L 172.53125 213.621094 L 185.039062 213.621094 " fill-opacity="1" fill-rule="nonzero"/></g><path fill="#a6d1ee" d="M 189.832031 205.71875 C 189.308594 205.71875 188.886719 205.226562 188.886719 204.613281 L 188.886719 196.355469 C 188.886719 195.746094 189.308594 195.25 189.832031 195.25 L 203.195312 195.25 C 203.71875 195.25 204.140625 195.746094 204.140625 196.355469 L 204.140625 204.613281 C 204.140625 205.226562 203.71875 205.71875 203.195312 205.71875 L 189.832031 205.71875 " fill-opacity="1" fill-rule="nonzero"/><path fill="#f8a64b" d="M 204.140625 198.460938 L 204.140625 196.355469 C 204.140625 195.746094 203.71875 195.25 203.195312 195.25 L 189.832031 195.25 C 189.308594 195.25 188.886719 195.746094 188.886719 196.355469 L 188.886719 198.460938 L 204.140625 198.460938 " fill-opacity="1" fill-rule="nonzero"/><path fill="#ea8342" d="M 191.640625 182.484375 C 191.640625 184.679688 189.847656 186.460938 187.632812 186.460938 C 185.414062 186.460938 183.621094 184.679688 183.621094 182.484375 C 183.621094 180.289062 185.414062 178.507812 187.632812 178.507812 C 189.847656 178.507812 191.640625 180.289062 191.640625 182.484375 " fill-opacity="1" fill-rule="nonzero"/><path fill="#a6d1ee" d="M 190.679688 182.484375 C 190.679688 184.152344 189.3125 185.507812 187.632812 185.507812 C 185.949219 185.507812 184.582031 184.152344 184.582031 182.484375 C 184.582031 180.8125 185.949219 179.460938 187.632812 179.460938 C 189.3125 179.460938 190.679688 180.8125 190.679688 182.484375 " fill-opacity="1" fill-rule="nonzero"/><g clip-path="url(#f60ea4ae69)"><path fill="#53c285" d="M 209.242188 209.066406 C 208.75 209.066406 208.292969 209.222656 207.921875 209.484375 C 207.953125 209.351562 207.972656 209.214844 207.972656 209.066406 C 207.972656 208.09375 207.179688 207.308594 206.199219 207.308594 C 205.574219 207.308594 205.023438 207.628906 204.710938 208.109375 C 204.390625 207.628906 203.84375 207.308594 203.21875 207.308594 C 202.886719 207.308594 202.578125 207.398438 202.3125 207.554688 C 202.078125 206.550781 201.171875 205.796875 200.089844 205.796875 C 198.972656 205.796875 198.046875 206.589844 197.847656 207.636719 C 197.554688 207.429688 197.199219 207.308594 196.8125 207.308594 C 196.304688 207.308594 195.847656 207.523438 195.523438 207.863281 C 195.121094 207.226562 194.410156 206.804688 193.59375 206.804688 C 192.335938 206.804688 191.3125 207.816406 191.3125 209.066406 C 191.3125 209.128906 191.316406 209.191406 191.320312 209.246094 C 191.046875 209.132812 190.742188 209.066406 190.425781 209.066406 C 189.164062 209.066406 188.140625 210.082031 188.140625 211.332031 C 188.140625 212.582031 189.164062 213.59375 190.425781 213.59375 L 209.242188 213.59375 C 210.503906 213.59375 211.523438 212.582031 211.523438 211.332031 C 211.523438 210.082031 210.503906 209.066406 209.242188 209.066406 " fill-opacity="1" fill-rule="nonzero"/></g></svg>