<svg xmlns="http://www.w3.org/2000/svg" xmlns:xlink="http://www.w3.org/1999/xlink" width="500" zoomAndPan="magnify" viewBox="0 0 375 374.999991" height="500" preserveAspectRatio="xMidYMid meet" version="1.0"><defs><clipPath id="5395f5103c"><path d="M 167.445312 155.980469 L 207 155.980469 L 207 218.980469 L 167.445312 218.980469 Z M 167.445312 155.980469 " clip-rule="nonzero"/></clipPath></defs><g clip-path="url(#5395f5103c)"><path fill="#8ac44f" d="M 178.253906 176.304688 C 178.253906 172.992188 181.261719 170.660156 186.066406 170.136719 L 186.066406 181.949219 C 181.515625 180.738281 178.253906 179.234375 178.253906 176.304688 Z M 198.664062 197.972656 C 198.664062 200.617188 196.410156 203.402344 190.851562 204.078125 L 190.851562 192.265625 C 195.285156 193.425781 198.664062 194.917969 198.664062 197.972656 Z M 184.960938 218.980469 L 190.851562 218.980469 L 190.851562 212.445312 C 201.910156 211.507812 206.84375 204.972656 206.84375 197.570312 C 206.84375 187.84375 198.519531 185.011719 190.851562 183.050781 L 190.851562 170.492188 C 194.464844 171.21875 198.003906 172.890625 200.804688 175.648438 L 205.664062 169.335938 C 201.835938 165.707031 196.828125 163.382812 190.851562 162.730469 L 190.851562 155.980469 L 184.960938 155.980469 L 184.960938 162.65625 C 175.453125 163.457031 169.414062 169.335938 169.414062 176.734375 C 169.414062 186.171875 177.375 188.859375 184.960938 190.746094 L 184.960938 204.824219 C 179.660156 204.027344 175.382812 201.269531 172.660156 198.289062 L 167.792969 204.902344 C 171.699219 208.890625 177.375 211.863281 184.960938 212.445312 L 184.960938 218.980469 " fill-opacity="1" fill-rule="nonzero"/></g></svg>